<svg width="23" height="24" viewBox="0 0 23 24" fill="none" xmlns="http://www.w3.org/2000/svg">
<path d="M22.9646 11.4734C22.5223 5.88043 18.0285 1.39898 12.42 0.957895C12.1192 0.940252 11.8008 0.922607 11.5 0.922607C5.14846 0.922607 0 6.05687 0 12.3909C0 18.7249 5.14846 23.8592 11.5 23.8592C17.8515 23.8592 23 18.7249 23 12.3909C23 12.0909 22.9823 11.7734 22.9646 11.4734ZM13.0569 13.9435L11.5 16.8018L9.94308 13.9435L7.07692 12.3909L9.94308 10.8383L11.5 7.98001L13.0569 10.8383L15.9231 12.3909L13.0569 13.9435Z" fill="url(#paint0_linear_544_1308)"/>
<defs>
<linearGradient id="paint0_linear_544_1308" x1="-7.1276" y1="-6.3074" x2="24.8601" y2="-4.33651" gradientUnits="userSpaceOnUse">
<stop stop-color="#35B4E2"/>
<stop offset="1" stop-color="#BE38F2"/>
</linearGradient>
</defs>
</svg>
