<svg width="24" height="25" viewBox="0 0 24 25" fill="none" xmlns="http://www.w3.org/2000/svg">
<path d="M12 1.79028C5.928 1.79028 1 6.70469 1 12.7599C1 18.8152 5.928 23.7296 12 23.7296C18.072 23.7296 23 18.8152 23 12.7599C23 6.70469 18.072 1.79028 12 1.79028ZM15.883 13.8898L12.583 17.1807C12.418 17.3453 12.209 17.422 12 17.422C11.791 17.422 11.582 17.3453 11.417 17.1807L8.117 13.8898C7.798 13.5717 7.798 13.0452 8.117 12.727C8.436 12.4089 8.964 12.4089 9.283 12.727L11.175 14.6138V8.92056C11.175 8.4708 11.549 8.09784 12 8.09784C12.451 8.09784 12.825 8.4708 12.825 8.92056V14.6138L14.717 12.727C15.036 12.4089 15.564 12.4089 15.883 12.727C16.202 13.0452 16.202 13.5717 15.883 13.8898Z" fill="url(#paint0_linear_544_1312)"/>
<defs>
<linearGradient id="paint0_linear_544_1312" x1="-5.81771" y1="-5.12537" x2="24.7793" y2="-3.24018" gradientUnits="userSpaceOnUse">
<stop stop-color="#35B4E2"/>
<stop offset="1" stop-color="#BE38F2"/>
</linearGradient>
</defs>
</svg>
