<svg width="24" height="25" viewBox="0 0 24 25" fill="none" xmlns="http://www.w3.org/2000/svg">
<path d="M12 1.73242C5.928 1.73242 1 6.64683 1 12.7021C1 18.7573 5.928 23.6717 12 23.6717C18.072 23.6717 23 18.7573 23 12.7021C23 6.64683 18.072 1.73242 12 1.73242ZM15.883 13.832L12.583 17.1228C12.418 17.2874 12.209 17.3642 12 17.3642C11.791 17.3642 11.582 17.2874 11.417 17.1228L8.117 13.832C7.798 13.5138 7.798 12.9873 8.117 12.6692C8.436 12.351 8.964 12.351 9.283 12.6692L11.175 14.5559V8.8627C11.175 8.41294 11.549 8.03997 12 8.03997C12.451 8.03997 12.825 8.41294 12.825 8.8627V14.5559L14.717 12.6692C15.036 12.351 15.564 12.351 15.883 12.6692C16.202 12.9873 16.202 13.5138 15.883 13.832Z" fill="white"/>
</svg>
